<svg id="Layer_1" xmlns="http://www.w3.org/2000/svg" viewBox="0 0 110.18 78.15"><defs><style>.cls-2{fill:#1b416a}</style></defs><path class="cls-2" d="M95.58 6c4.74 0 8.6 3.86 8.6 8.6v48.94c0 4.74-3.86 8.6-8.6 8.6H14.6c-4.74 0-8.6-3.86-8.6-8.6V14.6C6 9.86 9.86 6 14.6 6h80.98m0-6H14.6C6.54 0 0 6.54 0 14.6v48.94c0 8.07 6.54 14.6 14.6 14.6h80.98c8.07 0 14.6-6.54 14.6-14.6V14.6c0-8.07-6.54-14.6-14.6-14.6Z"/><path class="cls-2" d="M1.89 17.08h104.53V30.1H1.89z"/><path style="fill:#ccc" d="M63.85 57.81h-7.54v-3.55h-5.43v3.55h-6.1v-4.66h-5.43v4.66H27.82v-6.54h-5.43v11.2h11.47v3.76h5.44v-3.76h24.55v-4.66z"/></svg>